<?xml version="1.0" encoding="UTF-8" standalone="no"?>
<!-- Created with Inkscape (http://www.inkscape.org/) -->

<svg
   width="128.74332mm"
   height="106.15087mm"
   viewBox="0 0 128.74332 106.15087"
   version="1.1"
   id="svg5"
   sodipodi:docname="logo.svg"
   inkscape:version="1.2.2 (732a01da63, 2022-12-09)"
   inkscape:export-filename="logo_.png"
   inkscape:export-xdpi="96"
   inkscape:export-ydpi="96"
   xmlns:inkscape="http://www.inkscape.org/namespaces/inkscape"
   xmlns:sodipodi="http://sodipodi.sourceforge.net/DTD/sodipodi-0.dtd"
   xmlns="http://www.w3.org/2000/svg"
   xmlns:svg="http://www.w3.org/2000/svg">
  <sodipodi:namedview
     id="namedview7"
     pagecolor="#ffffff"
     bordercolor="#000000"
     borderopacity="0.25"
     inkscape:showpageshadow="2"
     inkscape:pageopacity="0.0"
     inkscape:pagecheckerboard="0"
     inkscape:deskcolor="#d1d1d1"
     inkscape:document-units="mm"
     showgrid="false"
     inkscape:zoom="2.325"
     inkscape:cx="367.95699"
     inkscape:cy="703.22581"
     inkscape:window-width="1920"
     inkscape:window-height="1017"
     inkscape:window-x="-8"
     inkscape:window-y="-8"
     inkscape:window-maximized="1"
     inkscape:current-layer="layer1" />
  <defs
     id="defs2" />
  <g
     inkscape:label="Layer BG "
     inkscape:groupmode="layer"
     id="layer1"
     transform="translate(-40.614835,-86.627294)">
    <g
       id="g1975"
       style="fill:#ebd992;fill-opacity:1">
      <path
         id="rect1400"
         style="fill:#ebd992;fill-opacity:1;stroke-width:0.264583"
         d="m 62.772236,172.3038 h 87.220574 l 15.91721,20.36055 H 46.855027 Z" />
      <path
         style="fill:#ffeeaa;fill-opacity:1;stroke:none;stroke-width:0.264583"
         d="m 46.855028,192.77815 c 0,0 -10.05779,-4.47286 -4.635495,-7.51292 4.664976,-2.61546 118.218787,-5.00717 123.690487,-1.13799 5.4717,3.86917 3.63224,8.65091 0,8.65091 z"
         id="path4603"
         sodipodi:nodetypes="csccc" />
    </g>
    <path
       id="path2453"
       style="display:inline;fill:#ff6600;stroke-width:0.284725"
       inkscape:transform-center-x="1.8419355e-06"
       inkscape:transform-center-y="-1.7290322e-06"
       d="m 106.51598,99.143302 v 13.745418 l -36.643242,7.0559 3.186368,43.69862 33.456874,4.55218 v 11.69386 c 15.3852,-2.66784 30.77063,-5.33581 46.15584,-8.00365 3.51427,-20.97023 7.02875,-41.94066 10.54302,-62.91089 -18.89948,-3.27721 -37.79938,-6.55421 -56.69886,-9.831438 z" />
    <path
       id="path691"
       style="display:inline;fill:#808000;stroke-width:0.284725"
       inkscape:transform-center-x="1.8419355e-06"
       inkscape:transform-center-y="-1.7290322e-06"
       d="m 106.51612,99.143103 c 0,0 37.799,6.554447 56.6985,9.831667 -3.51428,20.97025 -7.02857,41.94051 -10.54285,62.91076 -15.38522,2.66784 -46.15565,8.00351 -46.15565,8.00351 z"
       sodipodi:nodetypes="ccccc" />
    <path
       id="circle970"
       style="display:inline;opacity:1;mix-blend-mode:overlay;fill:#cccccc;stroke-width:0.602642"
       d="m 145.89264,139.51607 a 39.376526,34.912582 0 0 1 -39.37653,34.91258 39.376526,34.912582 0 0 1 -39.376523,-34.91258 39.376526,34.912582 0 0 1 39.376523,-34.91258 39.376526,34.912582 0 0 1 39.37653,34.91258 z" />
    <circle
       style="display:inline;opacity:1;mix-blend-mode:overlay;fill:#e6e6e6;stroke-width:0.432788"
       id="circle808"
       cx="106.51611"
       cy="139.51607"
       r="26.627176"
       sodipodi:insensitive="true" />
    <circle
       style="display:inline;opacity:1;mix-blend-mode:overlay;fill:#ffffff;stroke-width:0.264583"
       id="path806"
       cx="106.51611"
       cy="139.51607"
       r="16.278421"
       sodipodi:insensitive="true" />
    <path
       id="path1040"
       style="display:inline;fill:#a02c2c;stroke-width:0.284725"
       inkscape:transform-center-x="1.8419355e-06"
       inkscape:transform-center-y="-1.7290322e-06"
       d="m 106.51598,99.143302 c 0,0 -37.798869,6.554228 -56.698349,9.831438 l 10.543026,62.91089 c 15.385197,2.66784 46.155323,8.00365 46.155323,8.00365 v -11.69386 l -33.456874,-4.55218 -3.186368,-43.69862 36.643242,-7.0559 z" />
    <path
       id="path996"
       style="display:inline;fill:#d40055;stroke-width:0.284725"
       inkscape:transform-center-x="1.8419355e-06"
       inkscape:transform-center-y="-1.7290322e-06"
       d="m 106.51598,99.143302 v 40.372728 l 41.4507,6.19084 -2.31511,14.99598 -39.13559,7.49257 v 11.69386 c 0,0 30.77064,-5.33581 46.15584,-8.00365 2.13495,-12.73954 4.26982,-25.4793 6.40478,-38.21885 l -42.68887,-7.00474 0.42736,-9.11056 44.96728,-0.03 c 0.47744,-2.84892 0.95504,-5.69785 1.43247,-8.54677 -18.89946,-3.2772 -56.69886,-9.831438 -56.69886,-9.831438 z" />
    <path
       id="path1001"
       style="display:inline;fill:#ffffff;stroke-width:0.267429"
       inkscape:transform-center-x="1.2960849e-06"
       inkscape:transform-center-y="-3.7003812e-06"
       d="m 108.34646,102.35275 0.16094,35.82807 42.79521,5.81477 -2.97916,17.78658 -39.97698,7.92861 0.16093,6.39078 c 0,0 28.90144,-5.01169 43.35205,-7.51746 2.00526,-11.96566 3.20576,-20.23 5.21103,-32.19566 l -43.19346,-6.49468 1.52795,-15.47739 45.33347,-0.11265 c 0.44843,-2.67586 0.41421,-0.0408 0.86264,-2.71669 -17.75139,-3.07812 -53.25462,-9.23423 -53.25462,-9.23423 z"
       sodipodi:nodetypes="cccccccccccccc" />
    <path
       id="path747"
       style="display:inline;fill:#80e5ff;stroke:none;stroke-width:0.318446"
       inkscape:transform-center-y="-1.3745951e-06"
       d="m 103.45805,103.12747 c 0,0 -28.579067,6.31067 -49.716841,9.976 l 10.198462,57.20516 c 17.207289,2.9838 39.679589,6.34285 39.679589,6.34285 l -2.8e-4,-5.76821 -34.522363,-4.52802 -3.563734,-48.87391 37.925167,-6.36265 z"
       sodipodi:nodetypes="ccccccccc"
       inkscape:transform-center-x="1.6414792e-06" />
    <path
       id="path420"
       style="fill:#ffff00;stroke-width:0.264583"
       inkscape:transform-center-x="1.3419336e-06"
       inkscape:transform-center-y="-1.1951706"
       d="m 106.51598,86.627297 3.67836,7.453157 8.22504,1.19517 -5.9517,5.801476 1.40501,8.19181 -7.35671,-3.86765 -7.356702,3.86765 1.405002,-8.19181 -5.951696,-5.801477 8.225046,-1.195169 z" />
    <path
       style="fill:#ffffff;stroke:none;stroke-width:0.264583"
       d="m 106.51612,99.143103 -5.95184,1.933997 -1.405004,8.19181 z"
       id="path734"
       sodipodi:nodetypes="cccc" />
    <path
       style="fill:#ffffff;stroke:none;stroke-width:0.264583"
       d="m 106.51598,86.627297 1.4e-4,12.515806 -3.67849,-5.062649 z"
       id="path736"
       sodipodi:nodetypes="cccc" />
    <path
       style="fill:#ffe680;stroke:none;stroke-width:0.264583"
       d="m 106.51612,99.143102 -3.67849,-5.062649 -8.225047,1.195168 z"
       id="path794" />
    <path
       style="fill:#ffe680;stroke:none;stroke-width:0.264583"
       d="m 106.51598,99.1433 v 6.25796 l -7.356704,3.86765 z"
       id="path1010" />
    <path
       style="fill:#ffe680;stroke:none;stroke-width:0.264583"
       d="m 106.51612,99.143102 11.90326,-3.867478 -5.9517,5.801466 z"
       id="path1012" />
    <path
       style="fill:#ffffff;stroke:none;stroke-width:0.264583"
       d="M 113.87269,109.26891 106.51598,99.1433 v 6.25796 z"
       id="path1068" />
    <path
       style="fill:#ffe680;fill-opacity:1;stroke:none;stroke-width:0.264583"
       d="m 106.51612,99.143102 3.67821,-5.062649 -3.67835,-7.453156 z"
       id="path1070" />
  </g>
</svg>
